<?xml version="1.0" encoding="iso-8859-1"?>
<!-- Generator: Adobe Illustrator 19.0.0, SVG Export Plug-In . SVG Version: 6.00 Build 0)  -->
<svg version="1.1" id="Capa_1" xmlns="http://www.w3.org/2000/svg" xmlns:xlink="http://www.w3.org/1999/xlink" x="0px" y="0px"
	 viewBox="0 0 511 511" style="enable-background:new 0 0 511 511;" xml:space="preserve">
<path d="M487,0H24v63h16.64l40,448H430.36l40-448H487V0z M364.394,496h-41.787l-12.5-12.5l33.394-33.394l33.394,33.394L364.394,496z
	 M387.5,494.106l1.894,1.894h-3.787L387.5,494.106z M134.106,483.5l33.394-33.394l33.394,33.394l-12.5,12.5h-41.787L134.106,483.5z
	 M125.394,496h-3.787l1.894-1.894L125.394,496z M420.894,175.5L387.5,208.894L354.106,175.5l33.394-33.394L420.894,175.5z
	 M398.106,131.5L431.5,98.106l18.972,18.972l-2.828,31.671L431.5,164.894L398.106,131.5z M123.5,230.106l33.394,33.394
	L123.5,296.894L90.106,263.5L123.5,230.106z M79.5,252.894l-7.517-7.517l-4.242-47.511L79.5,186.106l33.394,33.394L79.5,252.894z
	 M332.894,263.5L299.5,296.894L266.106,263.5l33.394-33.394L332.894,263.5z M310.106,219.5l33.394-33.394l33.394,33.394
	L343.5,252.894L310.106,219.5z M211.5,318.106l33.394,33.394L211.5,384.894L178.106,351.5L211.5,318.106z M167.5,340.894
	L134.106,307.5l33.394-33.394l33.394,33.394L167.5,340.894z M222.106,307.5l33.394-33.394l33.394,33.394L255.5,340.894
	L222.106,307.5z M299.5,318.106l33.394,33.394L299.5,384.894L266.106,351.5L299.5,318.106z M310.106,307.5l33.394-33.394
	l33.394,33.394L343.5,340.894L310.106,307.5z M255.5,252.894L222.106,219.5l33.394-33.394l33.394,33.394L255.5,252.894z
	 M244.894,263.5L211.5,296.894L178.106,263.5l33.394-33.394L244.894,263.5z M167.5,252.894L134.106,219.5l33.394-33.394
	l33.394,33.394L167.5,252.894z M112.894,307.5l-32.465,32.465l-5.474-61.313l4.546-4.546L112.894,307.5z M123.5,318.106
	l33.394,33.394L123.5,384.894L90.106,351.5L123.5,318.106z M167.5,362.106l33.394,33.394L167.5,428.894L134.106,395.5L167.5,362.106
	z M211.5,406.106l33.394,33.394L211.5,472.894L178.106,439.5L211.5,406.106z M222.106,395.5l33.394-33.394l33.394,33.394
	L255.5,428.894L222.106,395.5z M299.5,406.106l33.394,33.394L299.5,472.894L266.106,439.5L299.5,406.106z M310.106,395.5
	l33.394-33.394l33.394,33.394L343.5,428.894L310.106,395.5z M354.106,351.5l33.394-33.394l33.394,33.394L387.5,384.894
	L354.106,351.5z M398.106,307.5l33.394-33.394l4.546,4.546l-5.474,61.313L398.106,307.5z M387.5,296.894L354.106,263.5
	l33.394-33.394l33.394,33.394L387.5,296.894z M398.106,219.5l33.394-33.394l11.759,11.759l-4.242,47.511l-7.517,7.517L398.106,219.5
	z M343.5,164.894L310.106,131.5L343.5,98.106l33.394,33.394L343.5,164.894z M332.894,175.5L299.5,208.894L266.106,175.5
	l33.394-33.394L332.894,175.5z M255.5,164.894L222.106,131.5L255.5,98.106l33.394,33.394L255.5,164.894z M244.894,175.5
	L211.5,208.894L178.106,175.5l33.394-33.394L244.894,175.5z M167.5,164.894L134.106,131.5L167.5,98.106l33.394,33.394L167.5,164.894
	z M156.894,175.5L123.5,208.894L90.106,175.5l33.394-33.394L156.894,175.5z M79.5,164.894l-16.144-16.144l-2.828-31.671L79.5,98.106
	l33.394,33.394L79.5,164.894z M58.789,97.604l-1.981-22.19L68.894,87.5L58.789,97.604z M68.894,175.5l-2.891,2.891l-0.567-6.349
	L68.894,175.5z M112.894,395.5l-25.252,25.252l-4.951-55.455L112.894,395.5z M123.5,406.106l33.394,33.394L123.5,472.894
	L90.106,439.5L123.5,406.106z M211.5,494.106l1.894,1.894h-3.787L211.5,494.106z M222.106,483.5l33.394-33.394l33.394,33.394
	l-12.5,12.5h-41.787L222.106,483.5z M299.5,494.106l1.894,1.894h-3.787L299.5,494.106z M354.106,439.5l33.394-33.394l33.394,33.394
	L387.5,472.894L354.106,439.5z M398.106,395.5l30.203-30.203l-4.951,55.455L398.106,395.5z M442.106,175.5l3.458-3.458l-0.567,6.349
	L442.106,175.5z M442.106,87.5l12.086-12.086l-1.981,22.19L442.106,87.5z M431.5,76.894L417.606,63h27.787L431.5,76.894z
	 M396.394,63l24.5,24.5L387.5,120.894L354.106,87.5l24.5-24.5H396.394z M343.5,76.894L329.606,63h27.787L343.5,76.894z M308.394,63
	l24.5,24.5L299.5,120.894L266.106,87.5l24.5-24.5H308.394z M255.5,76.894L241.606,63h27.787L255.5,76.894z M220.394,63l24.5,24.5
	L211.5,120.894L178.106,87.5l24.5-24.5H220.394z M167.5,76.894L153.606,63h27.787L167.5,76.894z M132.394,63l24.5,24.5
	L123.5,120.894L90.106,87.5l24.5-24.5H132.394z M79.5,76.894L65.606,63h27.787L79.5,76.894z M91.318,461.924l21.576,21.576
	l-12.5,12.5H94.36L91.318,461.924z M410.606,496l-12.5-12.5l21.576-21.576L416.64,496H410.606z M472,48H39V15h433V48z"/>
<g>
</g>
<g>
</g>
<g>
</g>
<g>
</g>
<g>
</g>
<g>
</g>
<g>
</g>
<g>
</g>
<g>
</g>
<g>
</g>
<g>
</g>
<g>
</g>
<g>
</g>
<g>
</g>
<g>
</g>
</svg>
